<svg xmlns="http://www.w3.org/2000/svg" xmlns:xlink="http://www.w3.org/1999/xlink" viewBox="0,0,256,256" width="24px" height="24px" fill-rule="nonzero"><g fill="currentColor" fill-rule="nonzero" stroke="none" stroke-width="1" stroke-linecap="butt" stroke-linejoin="miter" stroke-miterlimit="10" stroke-dasharray="" stroke-dashoffset="0" font-family="none" font-weight="none" font-size="none" text-anchor="none" style="mix-blend-mode: normal"><g transform="scale(10.66667,10.66667)"><path d="M6.5,7.2c-0.53974,0.6651 -0.87649,1.47157 -0.97,2.323c-1.09861,0.11721 -2.11614,0.63309 -2.86,1.45c-0.85944,0.9392 -1.27742,2.20042 -1.149,3.467c0.28972,2.34054 2.29278,4.08907 4.651,4.06h11.621l3.854,3.854c0.19551,0.19523 0.51227,0.19501 0.7075,-0.0005c0.19523,-0.19551 0.19501,-0.51227 -0.0005,-0.7075l-20,-20c-0.19551,-0.19523 -0.51227,-0.19501 -0.7075,0.0005c-0.19523,0.19551 -0.19501,0.51227 0.0005,0.7075zM7.212,7.912l9.581,9.588h-10.621c-1.84374,0.03228 -3.41757,-1.32546 -3.656,-3.154c-0.09774,-0.98381 0.22517,-1.96307 0.88892,-2.69579c0.66375,-0.73272 1.60643,-1.15054 2.59508,-1.15021c0.27614,0 0.5,-0.22386 0.5,-0.5c0.00346,-0.75356 0.25157,-1.48562 0.707,-2.086zM19.5,13v0.107c0,0.21705 0.17595,0.393 0.393,0.393c1.11578,-0.02707 2.12149,0.66913 2.489,1.723c0.39134,1.19215 -0.16589,2.4892 -1.3,3.026l-0.783,-0.783c0.36618,-0.07043 0.69246,-0.27605 0.914,-0.576c0.28823,-0.39681 0.36892,-0.90768 0.217,-1.374c-0.23705,-0.63673 -0.8583,-1.04739 -1.537,-1.016c-0.76774,-0.00383 -1.38917,-0.62526 -1.393,-1.393v-0.107c0,-1.38071 -1.11929,-2.5 -2.5,-2.5h-2c-0.27614,0 -0.5,-0.22386 -0.5,-0.5c0,-1.933 -1.567,-3.5 -3.5,-3.5c-0.20501,0.00239 -0.40944,0.02246 -0.611,0.06l-0.818,-0.817c1.28762,-0.44237 2.70662,-0.27407 3.85504,0.45722c1.14842,0.73129 1.90115,1.94591 2.04496,3.29978h1.529c1.933,0 3.5,1.567 3.5,3.5z"></path></g></g></svg>